<svg width="419" height="519" viewBox="0 0 419 519" fill="none" xmlns="http://www.w3.org/2000/svg">
<path d="M284.432 247.568L284.004 221.881C316.359 221.335 340.356 211.735 355.308 193.336C382.408 159.996 372.893 108.183 372.786 107.659L398.013 102.831C398.505 105.432 409.797 167.017 375.237 209.53C355.276 234.093 324.719 246.894 284.432 247.568Z" fill="#8A6FE8"/>
<path d="M331.954 109.36L361.826 134.245C367.145 138.676 375.055 137.959 379.497 132.639C383.928 127.32 383.211 119.41 377.891 114.969L348.019 90.0842C342.7 85.6531 334.79 86.3702 330.348 91.6896C325.917 97.0197 326.634 104.929 331.954 109.36Z" fill="#8A6FE8"/>
<path d="M407.175 118.062L417.92 94.2263C420.735 87.858 417.856 80.4087 411.488 77.5831C405.12 74.7682 397.67 77.6473 394.845 84.0156L383.831 108.461L407.175 118.062Z" fill="#8A6FE8"/>
<path d="M401.363 105.175L401.234 69.117C401.181 62.1493 395.498 56.541 388.53 56.5945C381.562 56.648 375.954 62.3313 376.007 69.2989L376.018 96.11L401.363 105.175Z" fill="#8A6FE8"/>
<path d="M386.453 109.071L378.137 73.9548C376.543 67.169 369.757 62.9628 362.971 64.5575C356.185 66.1523 351.979 72.938 353.574 79.7237L362.04 115.482L386.453 109.071Z" fill="#8A6FE8"/>
<path d="M381.776 142.261C396.359 142.261 408.181 130.44 408.181 115.857C408.181 101.274 396.359 89.4527 381.776 89.4527C367.194 89.4527 355.372 101.274 355.372 115.857C355.372 130.44 367.194 142.261 381.776 142.261Z" fill="url(#paint0_radial_1_2)"/>
<path d="M248.267 406.979C248.513 384.727 245.345 339.561 222.376 301.736L199.922 315.372C220.76 349.675 222.323 389.715 221.841 407.182C221.798 408.627 235.263 409.933 248.267 406.979Z" fill="url(#paint1_linear_1_2)"/>
<path d="M221.841 406.936L242.637 406.84L262.052 518.065L220.311 518.258C217.132 518.269 214.724 515.711 214.938 512.532L221.841 406.936Z" fill="#522CD5"/>
<path d="M306.566 488.814C310.173 491.661 310.109 495.782 309.831 500.127L308.964 513.452C308.803 515.839 306.727 517.798 304.34 517.809L260.832 518.012C258.125 518.023 256.08 515.839 256.262 513.142L256.551 499.335C256.883 494.315 255.192 492.474 251.307 487.744C244.649 479.663 224.967 435.62 226.84 406.925L248.256 406.829C249.691 423.858 272.167 461.682 306.566 488.814Z" fill="url(#paint2_linear_1_2)"/>
<path d="M309.82 500.127C310.023 497.088 310.077 494.176 308.889 491.715L254.635 491.961C256.134 494.166 256.765 496.092 256.562 499.314L256.273 513.121C256.091 515.828 258.146 518.012 260.843 517.99L304.34 517.798C306.727 517.787 308.803 515.828 308.964 513.442L309.82 500.127Z" fill="url(#paint3_radial_1_2)"/>
<path d="M133.552 407.471C133.103 385.22 135.864 340.021 158.49 301.993L181.073 315.425C160.545 349.921 159.346 389.972 159.989 407.428C160.042 408.884 146.578 410.318 133.552 407.471Z" fill="url(#paint4_linear_1_2)"/>
<path d="M110.798 497.152C110.765 494.187 111.204 491.575 112.457 487.23C131.882 434.132 133.52 407.364 133.52 407.364L159.999 407.246C159.999 407.246 161.819 433.512 181.716 486.427C183.289 490.195 183.471 493.641 183.674 496.831L183.792 513.816C183.803 516.374 181.716 518.483 179.158 518.494L177.873 518.504L116.781 518.782L115.496 518.793C112.927 518.804 110.83 516.728 110.819 514.159L110.798 497.152Z" fill="url(#paint5_linear_1_2)"/>
<path d="M110.798 497.152C110.798 496.67 110.808 496.199 110.83 495.739C110.969 494.262 111.643 492.603 114.875 492.582L180.207 492.282C182.561 492.367 183.343 494.176 183.589 495.311C183.621 495.814 183.664 496.328 183.696 496.82L183.813 513.806C183.824 515.411 183.011 516.824 181.769 517.669C181.031 518.172 180.132 518.472 179.179 518.483L177.895 518.494L116.802 518.772L115.528 518.782C114.244 518.793 113.077 518.269 112.232 517.434C111.386 516.599 110.862 515.432 110.851 514.148L110.798 497.152Z" fill="url(#paint6_radial_1_2)"/>
<path d="M362.761 272.401C370.027 243.957 365.158 221.298 365.158 221.298L371.839 221.264L372 221.137C362.194 169.042 316.354 129.747 261.462 130.001C199.626 130.281 149.722 180.656 150.001 242.508C150.281 304.361 200.642 354.278 262.478 353.999C311.273 353.779 352.633 322.361 367.765 278.729C368.215 276.874 368.155 273.553 362.761 272.401Z" fill="url(#paint7_radial_1_2)"/>
<path d="M355.185 107.773L401.047 107.564L400.863 67L355 67.209L355.185 107.773Z" fill="#512BD4"/>
<path d="M363.124 92.605C362.814 92.605 362.557 92.509 362.343 92.306C362.129 92.102 362.022 91.845 362.022 91.567C362.022 91.278 362.129 91.021 362.343 90.818C362.557 90.604 362.814 90.507 363.124 90.507C363.435 90.507 363.691 90.614 363.905 90.818C364.119 91.021 364.237 91.278 364.237 91.567C364.237 91.856 364.13 92.102 363.916 92.306C363.691 92.498 363.435 92.605 363.124 92.605Z" fill="white"/>
<path d="M375.315 92.413H373.335L368.09 84.182C367.962 83.979 367.844 83.754 367.759 83.529H367.716C367.759 83.765 367.78 84.278 367.78 85.07L367.791 92.423H366.035L366.014 81.207H368.122L373.185 89.244C373.399 89.576 373.538 89.812 373.602 89.929H373.634C373.581 89.63 373.56 89.127 373.56 88.42L373.549 81.196H375.293L375.315 92.413Z" fill="white"/>
<path d="M383.856 92.391L377.712 92.402L377.691 81.185L383.588 81.174V82.758L379.51 82.769L379.521 85.948L383.278 85.937V87.511L379.521 87.521L379.532 90.839L383.856 90.829V92.391Z" fill="white"/>
<path d="M392.568 82.737L389.421 82.748L389.443 92.38H387.623L387.602 82.748L384.466 82.758V81.174L392.557 81.153L392.568 82.737Z" fill="white"/>
<path d="M315.279 246.337C324.355 210.836 318.457 182.483 318.308 181.798L171.484 182.462C171.484 182.462 162.226 181.563 162.268 190.018C162.311 198.463 162.761 222.341 162.878 248.746C162.9 254.172 167.363 256.773 170.863 256.751C170.874 256.751 311.618 252.213 315.279 246.337Z" fill="url(#paint8_radial_1_2)"/>
<path d="M227.685 246.798C227.685 246.798 250.183 228.827 254.571 225.499C258.959 222.17 262.812 221.977 266.869 225.445C270.925 228.913 293.616 246.498 293.616 246.498L227.685 246.798Z" fill="#A08BE8"/>
<path d="M320.748 256.141C320.748 256.141 324.943 248.414 315.279 246.348C315.289 246.305 170.927 246.894 170.927 246.894C167.566 246.905 163.232 244.925 162.846 241.671C162.857 244.004 162.878 246.369 162.889 248.756C162.91 253.68 166.582 256.27 169.878 256.698C170.21 256.73 170.542 256.773 170.874 256.773L180.742 256.73L320.748 256.141Z" fill="#512BD4"/>
<path d="M206.4 233.214C212.511 233.095 217.302 224.667 217.102 214.39C216.901 204.112 211.785 195.878 205.674 195.997C199.563 196.116 194.772 204.544 194.973 214.821C195.173 225.099 200.289 233.333 206.4 233.214Z" fill="#512BD4"/>
<path d="M306.249 214.267C306.356 203.989 301.488 195.605 295.377 195.541C289.266 195.478 284.225 203.758 284.118 214.037C284.011 224.315 288.878 232.699 294.99 232.763C301.101 232.826 306.142 224.545 306.249 214.267Z" fill="#512BD4"/>
<path d="M205.905 205.291C208.152 203.022 211.192 202.016 214.157 202.262C215.912 205.495 217.014 209.733 217.111 214.389C217.164 217.3 216.811 220.04 216.158 222.513C212.669 223.519 208.752 222.662 205.979 219.922C201.912 215.909 201.88 209.348 205.905 205.291Z" fill="#8065E0"/>
<path d="M294.996 204.285C297.255 202.016 300.294 200.999 303.259 201.256C305.164 204.628 306.309 209.209 306.256 214.239C306.224 216.808 305.892 219.259 305.303 221.485C301.793 222.523 297.843 221.678 295.061 218.916C291.004 214.892 290.972 208.342 294.996 204.285Z" fill="#8065E0"/>
<path d="M52.6342 398.189C51.9171 395.888 35.2739 341.313 62.3204 300.075C77.9468 276.25 104.308 262.207 140.666 258.322L143.449 284.448C115.343 287.445 95.4676 297.517 84.3579 314.374C64.0971 345.113 77.5722 389.905 77.7113 390.355L52.6342 398.189Z" fill="url(#paint9_linear_1_2)"/>
<path d="M136.15 293.974C150.502 293.974 162.137 282.339 162.137 267.987C162.137 253.635 150.502 242 136.15 242C121.798 242 110.163 253.635 110.163 267.987C110.163 282.339 121.798 293.974 136.15 293.974Z" fill="url(#paint10_radial_1_2)"/>
<path d="M113.01 375.606L74.4683 370.479C67.597 369.569 61.2929 374.386 60.3725 381.257C59.4627 388.128 64.279 394.432 71.1504 395.353L109.692 400.48C116.563 401.389 122.867 396.573 123.788 389.702C124.698 382.83 119.871 376.516 113.01 375.606Z" fill="#8A6FE8"/>
<path d="M44.7354 408.357L48.353 434.248C49.3698 441.14 55.7702 445.903 62.6629 444.897C69.5556 443.88 74.3185 437.48 73.3124 430.587L69.5984 404.033L44.7354 408.357Z" fill="#8A6FE8"/>
<path d="M56.5194 416.16L75.849 446.599C79.6058 452.464 87.4082 454.177 93.2735 450.42C99.1387 446.663 100.851 438.861 97.0945 432.995L82.7953 410.316L56.5194 416.16Z" fill="#8A6FE8"/>
<path d="M67.0511 404.911L92.8026 430.191C97.7688 435.083 105.753 435.018 110.644 430.052C115.536 425.086 115.471 417.101 110.516 412.21L84.2937 386.469L67.0511 404.911Z" fill="#8A6FE8"/>
<path d="M67.4043 423.084C81.987 423.084 93.8086 411.263 93.8086 396.68C93.8086 382.097 81.987 370.276 67.4043 370.276C52.8216 370.276 41 382.097 41 396.68C41 411.263 52.8216 423.084 67.4043 423.084Z" fill="url(#paint11_radial_1_2)"/>
<path d="M264.852 121.173L237.941 124.132L238.683 96.0836L258.01 93.9602L264.852 121.173Z" fill="#8A6FE8"/>
<path d="M250.14 99.1894C260.577 97.0634 267.315 86.8787 265.189 76.4412C263.063 66.0037 252.879 59.2659 242.441 61.3918C232.004 63.5178 225.266 73.7025 227.392 84.14C229.518 94.5775 239.702 101.315 250.14 99.1894Z" fill="#D8CFF7"/>
<path d="M277.007 136.927C278.224 136.789 279.07 135.633 278.806 134.442C275.973 121.824 264.045 113.08 250.895 114.535C237.744 115.98 228.008 127.116 227.987 140.042C227.985 141.266 229.071 142.202 230.29 142.074L277.007 136.927Z" fill="url(#paint12_radial_1_2)"/>
<defs>
<radialGradient id="paint0_radial_1_2" cx="0" cy="0" r="1" gradientUnits="userSpaceOnUse" gradientTransform="translate(382.004 103.457) scale(26.4058 26.4058)">
<stop stop-color="#8065E0"/>
<stop offset="1" stop-color="#512BD4"/>
</radialGradient>
<linearGradient id="paint1_linear_1_2" x1="214.439" y1="303.482" x2="236.702" y2="409.505" gradientUnits="userSpaceOnUse">
<stop stop-color="#522CD5"/>
<stop offset="0.4397" stop-color="#8A6FE8"/>
</linearGradient>
<linearGradient id="paint2_linear_1_2" x1="231.673" y1="404.144" x2="297.805" y2="522.048" gradientUnits="userSpaceOnUse">
<stop stop-color="#522CD5"/>
<stop offset="0.4397" stop-color="#8A6FE8"/>
</linearGradient>
<radialGradient id="paint3_radial_1_2" cx="0" cy="0" r="1" gradientUnits="userSpaceOnUse" gradientTransform="translate(280.957 469.555) rotate(-0.260742) scale(45.8326 45.8326)">
<stop offset="0.034" stop-color="#522CD5"/>
<stop offset="0.9955" stop-color="#8A6FE8"/>
</radialGradient>
<linearGradient id="paint4_linear_1_2" x1="166.061" y1="303.491" x2="144.763" y2="409.709" gradientUnits="userSpaceOnUse">
<stop stop-color="#522CD5"/>
<stop offset="0.4397" stop-color="#8A6FE8"/>
</linearGradient>
<linearGradient id="paint5_linear_1_2" x1="146.739" y1="407.302" x2="147.246" y2="518.627" gradientUnits="userSpaceOnUse">
<stop stop-color="#522CD5"/>
<stop offset="0.4397" stop-color="#8A6FE8"/>
</linearGradient>
<radialGradient id="paint6_radial_1_2" cx="0" cy="0" r="1" gradientUnits="userSpaceOnUse" gradientTransform="translate(148.63 470.023) rotate(179.739) scale(50.2476 50.2475)">
<stop offset="0.034" stop-color="#522CD5"/>
<stop offset="0.9955" stop-color="#8A6FE8"/>
</radialGradient>
<radialGradient id="paint7_radial_1_2" cx="0" cy="0" r="1" gradientUnits="userSpaceOnUse" gradientTransform="translate(286.994 199.258) rotate(179.739) scale(111.51 111.54)">
<stop offset="0.4744" stop-color="#A08BE8"/>
<stop offset="0.8618" stop-color="#8065E0"/>
</radialGradient>
<radialGradient id="paint8_radial_1_2" cx="0" cy="0" r="1" gradientUnits="userSpaceOnUse" gradientTransform="translate(314.861 158.738) rotate(179.739) scale(146.053 146.053)">
<stop offset="0.0933" stop-color="#E1DFDD"/>
<stop offset="0.6573" stop-color="white"/>
</radialGradient>
<linearGradient id="paint9_linear_1_2" x1="95.1846" y1="258.331" x2="95.1846" y2="398.194" gradientUnits="userSpaceOnUse">
<stop offset="0.3344" stop-color="#9780E6"/>
<stop offset="0.8488" stop-color="#8A6FE8"/>
</linearGradient>
<radialGradient id="paint10_radial_1_2" cx="0" cy="0" r="1" gradientUnits="userSpaceOnUse" gradientTransform="translate(131.349 259.243) rotate(-0.260742) scale(25.9924)">
<stop stop-color="#8065E0"/>
<stop offset="1" stop-color="#512BD4"/>
</radialGradient>
<radialGradient id="paint11_radial_1_2" cx="0" cy="0" r="1" gradientUnits="userSpaceOnUse" gradientTransform="translate(66.805 386.215) scale(26.4106 26.4106)">
<stop stop-color="#8065E0"/>
<stop offset="1" stop-color="#512BD4"/>
</radialGradient>
<radialGradient id="paint12_radial_1_2" cx="0" cy="0" r="1" gradientUnits="userSpaceOnUse" gradientTransform="translate(249.235 124.909) rotate(-32.2025) scale(21.0773)">
<stop stop-color="#8065E0"/>
<stop offset="1" stop-color="#512BD4"/>
</radialGradient>
</defs>
</svg>
